<svg width="770" height="290" viewBox="0 0 770 290" fill="none" xmlns="http://www.w3.org/2000/svg">
<path d="M152 65.72C148.16 65.2933 145.493 65.08 144 65.08C138.667 65.08 134.613 66.1467 131.84 68.28C129.067 70.2 127.147 73.6133 126.08 78.52H152V137.72H125.44V259H54.4V137.72H35.2V78.52H54.4C54.8267 55.0533 62.1867 36.92 76.48 24.12C90.9867 11.1067 111.253 4.59999 137.28 4.59999C140.267 4.59999 145.173 4.81333 152 5.23999V65.72ZM161.525 168.76C161.525 149.773 164.725 133.347 171.125 119.48C177.738 105.4 186.698 94.7333 198.005 87.48C209.312 80.0133 222.005 76.28 236.085 76.28C247.818 76.28 257.952 78.7333 266.485 83.64C275.018 88.3333 281.525 94.84 286.005 103.16V78.52H356.725V259H286.005V234.36C281.525 242.68 275.018 249.293 266.485 254.2C257.952 258.893 247.818 261.24 236.085 261.24C222.005 261.24 209.312 257.613 198.005 250.36C186.698 242.893 177.738 232.227 171.125 218.36C164.725 204.28 161.525 187.747 161.525 168.76ZM286.005 168.76C286.005 159.16 283.552 151.693 278.645 146.36C273.738 141.027 267.445 138.36 259.765 138.36C252.085 138.36 245.792 141.027 240.885 146.36C235.978 151.693 233.525 159.16 233.525 168.76C233.525 178.36 235.978 185.827 240.885 191.16C245.792 196.493 252.085 199.16 259.765 199.16C267.445 199.16 273.738 196.493 278.645 191.16C283.552 185.827 286.005 178.36 286.005 168.76ZM459.665 111.8C466.918 101.347 475.772 93.0267 486.225 86.84C496.678 80.44 507.558 77.24 518.865 77.24V153.08H498.705C485.265 153.08 475.345 155.427 468.945 160.12C462.758 164.813 459.665 173.133 459.665 185.08V259H388.625V78.52H459.665V111.8Z" fill="white"/>
<path fill-rule="evenodd" clip-rule="evenodd" d="M577.109 75.525C553.445 78.1945 536.502 92.985 529.948 116.696C528.375 122.386 528.052 126.062 528.003 138.85C527.942 154.726 528.896 161.677 532.901 174.517C534.509 179.668 534.774 179.991 537.9 180.601C542.285 181.456 555.663 181.51 558.643 180.684C559.946 180.323 562.241 179.007 563.741 177.759C567.285 174.813 567.297 171.811 563.809 161.052C560.601 151.153 560.507 147.695 563.294 141.782C567.194 133.506 577.419 126.535 586.038 126.274C593.713 126.042 600.934 133.226 604.974 145.11C607.083 151.316 607.848 166.385 606.382 172.891C602.131 191.773 585.648 203.82 564.145 203.761C556.845 203.742 553.268 203.252 546.741 201.381C539.455 199.291 559.855 224.213 573.837 234.483C582.23 240.646 592.559 246.238 603.29 250.428C611.961 253.813 628.178 257.998 632.632 258C635.73 258.001 650.449 253.937 657.565 251.115C680.491 242.022 701.869 225.833 713.492 208.759C718.355 201.616 719.118 199.575 716.536 200.615C715.683 200.959 710.553 201.448 705.139 201.701C689.102 202.453 678.055 199.052 669.883 190.848C660.94 181.869 657.421 165.649 661.014 149.974C664.996 132.606 673.23 124.21 683.952 126.585C694.961 129.023 704.186 138.395 705.381 148.358C705.769 151.598 705.28 154.177 703.115 160.311C699.587 170.308 699.495 174.789 702.757 177.777C706.172 180.906 713.215 182.164 722.047 181.224L729.17 180.465L732.397 170.889C736.799 157.827 738.044 150.122 737.999 136.222C737.968 126.725 737.572 123.046 735.992 117.553C729.704 95.6965 714.081 81.6595 690.746 76.8996C681.687 75.051 663.772 75.0466 655.372 76.89C651.845 77.6644 645.335 79.7312 640.905 81.4816L632.851 84.6663L625.135 82.0467C607.497 76.0603 591.556 73.8945 577.109 75.525Z" fill="#25337A"/>
</svg>
