<svg width="274" height="247" viewBox="0 0 274 247" fill="none" xmlns="http://www.w3.org/2000/svg">
<path fill-rule="evenodd" clip-rule="evenodd" d="M81.1092 32.525C57.4453 35.1945 40.5022 49.985 33.948 73.696C32.3751 79.3863 32.0524 83.0616 32.0027 95.8501C31.9415 111.726 32.8956 118.677 36.9015 131.517C38.509 136.668 38.7741 136.991 41.8996 137.601C46.285 138.456 59.6628 138.51 62.6428 137.684C63.9462 137.323 66.2409 136.007 67.7411 134.759C71.2851 131.813 71.2975 128.811 67.8094 118.052C64.6006 108.153 64.5075 104.695 67.2942 98.7824C71.1937 90.5058 81.4186 83.5347 90.0378 83.2736C97.7127 83.0423 104.934 90.2255 108.974 102.11C111.083 108.316 111.848 123.385 110.382 129.891C106.131 148.773 89.6477 160.82 68.1445 160.761C60.8447 160.742 57.2679 160.252 50.7413 158.381C43.4547 156.291 63.8549 181.213 77.8374 191.483C86.2305 197.646 96.5592 203.238 107.29 207.428C115.961 210.813 132.178 214.998 136.632 215C139.73 215.001 154.449 210.937 161.565 208.115C184.491 199.022 205.869 182.833 217.492 165.759C222.355 158.616 223.118 156.575 220.536 157.615C219.683 157.959 214.553 158.448 209.139 158.701C193.102 159.453 182.055 156.052 173.883 147.848C164.94 138.869 161.421 122.649 165.014 106.974C168.996 89.6061 177.23 81.2103 187.952 83.5846C198.961 86.0228 208.186 95.3954 209.381 105.358C209.769 108.598 209.28 111.177 207.115 117.311C203.587 127.308 203.495 131.789 206.757 134.777C210.172 137.906 217.215 139.164 226.047 138.224L233.17 137.465L236.397 127.889C240.799 114.827 242.044 107.122 241.999 93.2218C241.968 83.7248 241.572 80.046 239.992 74.5528C233.704 52.6965 218.081 38.6595 194.746 33.8996C185.687 32.051 167.772 32.0466 159.372 33.89C155.845 34.6644 149.335 36.7312 144.905 38.4816L136.851 41.6663L129.135 39.0467C111.497 33.0603 95.5563 30.8945 81.1092 32.525Z" fill="#84C32E"/>
</svg>
